<?xml version="1.0" encoding="utf-8"?>
<!-- Generator: Adobe Illustrator 23.0.3, SVG Export Plug-In . SVG Version: 6.00 Build 0)  -->
<svg version="1.1" id="Capa_1" xmlns="http://www.w3.org/2000/svg" xmlns:xlink="http://www.w3.org/1999/xlink" x="0px" y="0px"
	 viewBox="0 0 1200 1200" enable-background="new 0 0 1200 1200" xml:space="preserve">
<path fill="#9A71BA" d="M584.149,1132.298h10.596V1150h-10.596V1132.298z M574.577,1150v-17.702h-10.992V1150H574.577z
	 M476.637,782.371v41.156c0,1.969-1.597,3.566-3.567,3.566h-43.899c-1.97,0-3.567,1.597-3.567,3.566v43.9
	c0,1.969-1.597,3.566-3.567,3.566h-41.155c-1.97,0-3.567-1.597-3.567-3.566v-43.9c0-1.969-1.597-3.566-3.567-3.566h-43.899
	c-1.97,0-3.567-1.597-3.567-3.566v-41.156c0-1.969,1.597-3.566,3.567-3.566h43.899c1.97,0,3.567-1.597,3.567-3.566v-43.9
	c0-1.969,1.597-3.566,3.567-3.566h41.155c1.97,0,3.567,1.597,3.567,3.566v43.9c0,1.969,1.597,3.566,3.567,3.566h43.899
	C475.04,778.805,476.637,780.402,476.637,782.371z M363.37,796.092c0.002-1.454-1.184-2.629-2.638-2.614l-8.507,0.023
	c-0.677,0.002-1.154-0.529-1.187-1.205v-2.05l-13.388,10.322c-0.983,0.841-0.985,2.362-0.004,3.206l13.393,11.354v-2.443
	c0.035-0.555,0.632-0.978,1.187-0.951l8.512-0.092c1.443,0.002,2.614-1.165,2.616-2.607L363.37,796.092z M388.746,752.537h2.443
	c0.554,0.035,0.978,0.633,0.951,1.187l0.092,8.513c-0.003,1.442,1.165,2.614,2.607,2.615l12.942,0.016
	c1.454,0.002,2.629-1.184,2.614-2.638l-0.023-8.507c-0.002-0.677,0.529-1.154,1.205-1.187h2.05l-10.322-13.388
	c-0.842-0.984-2.362-0.985-3.206-0.005L388.746,752.537z M413.628,852.835h-2.443c-0.554-0.034-0.978-0.632-0.951-1.186
	l-0.092-8.513c0.003-1.442-1.165-2.614-2.607-2.615l-12.942-0.017c-1.454-0.002-2.629,1.185-2.614,2.638l0.023,8.507
	c0.002,0.677-0.529,1.154-1.205,1.186h-2.05l10.322,13.389c0.842,0.984,2.362,0.985,3.206,0.005L413.628,852.835z M421.105,803.368
	c0-11.242-9.114-20.356-20.356-20.356c-11.242,0-20.356,9.113-20.356,20.356s9.114,20.357,20.356,20.357
	C411.991,823.725,421.105,814.611,421.105,803.368z M464.728,801.599l-13.393-11.354v2.443c-0.035,0.555-0.632,0.978-1.187,0.952
	l-8.512,0.091c-1.443-0.002-2.614,1.165-2.616,2.607l-0.016,12.942c-0.002,1.454,1.184,2.628,2.638,2.614l8.507-0.023
	c0.677-0.002,1.154,0.529,1.187,1.205v2.05l13.388-10.322C465.707,803.964,465.709,802.444,464.728,801.599z M400.748,792.585
	c-5.946,0-10.784,4.838-10.784,10.784c0,5.947,4.838,10.784,10.784,10.784c5.946,0,10.784-4.838,10.784-10.784
	C411.533,797.422,406.695,792.585,400.748,792.585z M546.557,941.83L546.557,941.83c-2.725-5.753-9.599-8.208-15.352-5.483
	l-55.063,26.083c-5.753,2.725-8.208,9.599-5.483,15.352h0c2.725,5.753,9.599,8.208,15.352,5.483l55.063-26.083
	C546.827,954.457,549.282,947.583,546.557,941.83z M659.356,942.653L659.356,942.653c-2.725-5.753-9.599-8.208-15.352-5.483
	l-55.063,26.083c-5.753,2.725-8.208,9.599-5.483,15.352l0,0c2.725,5.753,9.599,8.208,15.352,5.483l55.063-26.083
	C659.627,955.28,662.081,948.407,659.356,942.653z M735.499,775.375c-22.313,0-40.402,18.089-40.402,40.402
	c0,22.313,18.089,40.402,40.402,40.402c22.313,0,40.402-18.089,40.402-40.402C775.901,793.463,757.813,775.375,735.499,775.375z
	 M846.378,725.973c-22.313,0-40.402,18.089-40.402,40.402c0,22.313,18.089,40.402,40.402,40.402
	c22.313,0,40.402-18.089,40.402-40.402C886.779,744.062,868.691,725.973,846.378,725.973z M735.76,775.477
	c-22.313,0-40.402,18.089-40.402,40.402c0,22.313,18.089,40.402,40.402,40.402c22.313,0,40.402-18.089,40.402-40.402
	C776.162,793.565,758.073,775.477,735.76,775.477z M846.638,726.076c-22.313,0-40.402,18.089-40.402,40.402
	c0,22.313,18.089,40.402,40.402,40.402c22.313,0,40.402-18.089,40.402-40.402C887.04,744.164,868.952,726.076,846.638,726.076z
	 M270.604,104.655c-0.34,0.106-0.693-0.034-0.857-0.35c-0.298-0.575-0.778-1.494-1.128-2.132c-0.284-0.517-0.431-1.086-0.431-1.675
	l0-24.152c0-14.551,11.796-26.347,26.347-26.347h22.822c-0.01,1.035-0.019,2.05-0.026,3.012c-0.019,2.657,2.129,4.803,4.787,4.803
	c2.629,0,4.766-2.103,4.785-4.732c0.007-0.982,0.017-2.022,0.027-3.082h28.048c0.808,0,1.464,0.655,1.464,1.464v0
	c0,2.643,2.143,4.786,4.786,4.786l0,0c2.643,0,4.786-2.143,4.786-4.786v0c0-0.808,0.655-1.464,1.464-1.464h7.857
	c0.808,0,1.464,0.655,1.464,1.464v0c0,2.643,2.143,4.786,4.786,4.786l0,0c2.643,0,4.786-2.143,4.786-4.786v0
	c0-0.808,0.655-1.464,1.464-1.464h7.328c0.808,0,1.464,0.655,1.464,1.464v0c0,2.643,2.143,4.786,4.786,4.786l0,0
	c2.643,0,4.786-2.143,4.786-4.786v0c0-0.808,0.655-1.464,1.464-1.464h497.801c14.552,0,26.348,11.796,26.348,26.348v21.848
	l-0.737,1.094c-1.508,2.24-4.163,3.422-6.837,3.044l-6.569-0.929l-30.891-0.003c-0.044-2.54-0.308-18.146-0.384-28.536
	c-0.019-2.64-2.165-4.752-4.806-4.752c-2.647,0-4.796,2.14-4.807,4.787l-0.117,28.501l-549.75-0.044
	c0.052-3.082,0.306-18.232,0.381-28.441c0.019-2.658-2.129-4.803-4.787-4.803c-2.63,0-4.766,2.103-4.785,4.732
	c-0.075,10.339-0.337,25.853-0.384,28.513l-28.86-0.002C282.804,101.355,276.425,102.843,270.604,104.655z M345.172,79.935
	c0,6.336,5.136,11.472,11.472,11.472h105.088c6.336,0,11.472-5.136,11.472-11.472v-0.996c0-6.336-5.136-11.472-11.472-11.472
	H356.644c-6.336,0-11.472,5.136-11.472,11.472V79.935z M927.284,112.449c2.598,0.372,4.527,2.597,4.527,5.221v896.476
	c0,75.03-60.823,135.853-135.853,135.853H604.317v-17.851c7.049-0.747,12.562-6.641,12.562-13.889v-0.935
	c0-7.753-6.285-14.038-14.037-14.038h-78.549c-7.753,0-14.038,6.285-14.038,14.038v0.935c0,7.753,6.285,14.037,14.038,14.037h29.721
	V1150H297.829c-16.37,0-29.64-13.27-29.64-29.64l0-1004.022c0-1.771,1.306-3.271,3.061-3.504c5.478-0.727,13.222-1.907,18.881-1.907
	H916.65L927.284,112.449z M315.274,544.835c0,15.352,12.489,27.841,27.84,27.841h452.433c50.99,0,92.473-41.483,92.473-92.473
	V161.977c0-15.352-12.489-27.841-27.84-27.841H343.113c-15.351,0-27.84,12.489-27.84,27.841V544.835z M848.936,712.66
	c-8.157,0-15.864,2.015-22.686,5.593l-117.626,52.055c-15.983,8.856-26.866,26.395-26.866,46.584
	c0,29.116,22.635,52.718,50.557,52.718c8.631,0,16.756-2.255,23.865-6.231c0,0,109.484-47.981,121.724-54.788
	c17.051-9.482,21.59-25.333,21.59-43.213C899.492,736.262,876.857,712.66,848.936,712.66z M436.772,838.261h36.847
	c7.823,0,14.186-6.363,14.186-14.187v-42.25c0-7.824-6.363-14.187-14.186-14.187h-36.847v-36.847
	c0-7.821-6.363-14.184-14.186-14.184h-42.251c-7.823,0-14.187,6.363-14.187,14.184v36.847h-36.845
	c-7.823,0-14.186,6.363-14.186,14.187v42.25c0,7.824,6.363,14.187,14.186,14.187h36.845v36.846c0,7.824,6.364,14.187,14.187,14.187
	h42.251c7.823,0,14.186-6.363,14.186-14.187V838.261z M559.904,938.172l-2.06-4.35c-5.065-10.688-17.883-15.265-28.572-10.205
	l-61.754,29.253c-10.691,5.063-15.268,17.883-10.205,28.574l2.06,4.344c2.452,5.182,6.776,9.096,12.173,11.021
	c2.357,0.841,4.797,1.262,7.229,1.262c3.133,0,6.254-0.695,9.17-2.078l61.754-29.25h0.002c5.177-2.452,9.091-6.777,11.018-12.174
	C562.646,949.172,562.356,943.348,559.904,938.172z M672.702,938.992l-2.06-4.344c-2.452-5.182-6.776-9.096-12.173-11.021
	c-5.397-1.926-11.221-1.642-16.399,0.816l-61.756,29.25c-10.689,5.067-15.267,17.883-10.203,28.57l2.06,4.35
	c3.664,7.734,11.386,12.268,19.425,12.268c3.072,0,6.191-0.664,9.147-2.063l61.754-29.253
	C673.188,962.502,677.766,949.683,672.702,938.992z M741.57,1124.397l-49.075-90.047c-1.398-2.566-4.612-3.512-7.178-2.114
	l-1.553,0.847c-2.566,1.398-3.512,4.612-2.114,7.178l49.075,90.046c1.398,2.566,4.612,3.512,7.178,2.114l1.553-0.846
	C742.021,1130.176,742.968,1126.963,741.57,1124.397z M776.15,1106.558l-49.075-90.047c-1.398-2.566-4.612-3.512-7.178-2.113
	l-1.553,0.846c-2.566,1.398-3.512,4.612-2.114,7.178l49.075,90.047c1.398,2.566,4.612,3.513,7.178,2.114l1.553-0.847
	C776.602,1112.337,777.549,1109.124,776.15,1106.558z M808.261,1088.444l-49.075-90.046c-1.398-2.566-4.612-3.513-7.178-2.114
	l-1.553,0.846c-2.566,1.399-3.512,4.612-2.114,7.178l49.075,90.047c1.398,2.565,4.612,3.512,7.178,2.113l1.553-0.847
	C808.713,1094.224,809.66,1091.01,808.261,1088.444z M842.019,1069.507l-49.075-90.047c-1.398-2.566-4.612-3.513-7.178-2.114
	l-1.553,0.847c-2.566,1.398-3.512,4.612-2.114,7.178l49.075,90.047c1.398,2.566,4.612,3.512,7.178,2.113l1.553-0.846
	C842.471,1075.286,843.417,1072.072,842.019,1069.507z M874.953,1051.119l-49.075-90.047c-1.398-2.566-4.612-3.513-7.178-2.114
	l-1.553,0.847c-2.566,1.398-3.512,4.612-2.114,7.178l49.075,90.047c1.398,2.565,4.612,3.512,7.178,2.113l1.553-0.846
	C875.405,1056.898,876.351,1053.685,874.953,1051.119z M908.161,1033.28l-49.075-90.047c-1.398-2.565-4.612-3.512-7.178-2.113
	l-1.553,0.847c-2.566,1.398-3.512,4.612-2.114,7.177l49.075,90.047c1.398,2.566,4.612,3.512,7.178,2.114l1.553-0.846
	C908.613,1039.058,909.56,1035.845,908.161,1033.28z M324.846,544.835V161.977c0-10.074,8.195-18.269,18.267-18.269H860.18
	c10.072,0,18.268,8.195,18.268,18.269v318.226c0,45.711-37.189,82.901-82.901,82.901H343.113
	C333.041,563.104,324.846,554.909,324.846,544.835z M374.361,300.3c0-6.344-5.143-11.487-11.487-11.487
	c-6.344,0-11.487,5.143-11.487,11.487c0,6.343,5.143,11.486,11.487,11.486C369.218,311.786,374.361,306.644,374.361,300.3z
	 M792.819,164.295c0,2.642,2.142,4.786,4.786,4.786h63.398c2.644,0,4.786-2.144,4.786-4.786c0-2.642-2.142-4.786-4.786-4.786
	h-63.398C794.961,159.509,792.819,161.653,792.819,164.295z M770.285,189.97h-338.1c-4.63,0-8.383,3.753-8.383,8.383v308.459
	c0,4.63,3.753,8.383,8.383,8.383h338.1c4.629,0,8.382-3.753,8.382-8.383V198.353C778.668,193.723,774.915,189.97,770.285,189.97z
	 M342.445,164.295c0,2.642,2.142,4.786,4.786,4.786h147.38c2.644,0,4.786-2.144,4.786-4.786c0-2.642-2.142-4.786-4.786-4.786
	h-147.38C344.587,159.509,342.445,161.653,342.445,164.295z M602.723,1122.972h-79.017c-2.644,0-4.786-2.144-4.786-4.786
	s2.142-4.786,4.786-4.786h79.017c2.644,0,4.786,2.144,4.786,4.786S605.367,1122.972,602.723,1122.972z"/>
</svg>
